<?xml version="1.0" encoding="UTF-8"?><svg id="Layer_2" xmlns="http://www.w3.org/2000/svg" viewBox="0 0 425.43 88.32"><defs><style>.cls-1{fill:#ee2f33;stroke-width:0px;}</style></defs><g id="Layer_1-2"><path class="cls-1" d="m31.39,65.97c-2.32.74-4.79,1.15-7.36,1.15-13.27,0-24.03-10.75-24.03-24.02s10.76-24.03,24.03-24.03c10.95,0,23.05,9.16,23.09,20.39v27.49h-13.09l-.1-25.08c.19-5.35-4.24-9.51-9.9-9.51s-10.74,4.8-10.74,10.74,4.81,10.74,10.74,10.74c2.81,0,5.37-1.08,7.29-2.85l.08,14.98Z"/><path class="cls-1" d="m123.51,20.56c-2.32-.75-4.79-1.15-7.36-1.15-13.27,0-24.03,10.76-24.03,24.02s10.76,24.04,24.03,24.04c10.95,0,23.04-8.31,23.08-20.4V.48h-13.09l-.11,44.19c.2,5.34-4.23,9.51-9.89,9.51s-10.74-4.8-10.74-10.75,4.81-10.73,10.74-10.73c2.81,0,5.36,1.08,7.28,2.85l.08-14.98Z"/><polygon class="cls-1" points="142 66.85 141.98 20.87 155.07 20.87 155.07 66.88 142 66.85"/><path class="cls-1" d="m239.45,65.84c-2.31.74-4.79,1.15-7.35,1.15-13.27,0-24.02-10.76-24.02-24.03s10.76-24.03,24.02-24.03c10.95,0,23.04,8.31,23.08,20.4v49h-13.09l-.1-46.59c.19-5.34-4.24-9.51-9.9-9.51s-10.74,4.8-10.74,10.74,4.8,10.75,10.74,10.75c2.81,0,5.47-1.18,7.38-2.94l-.03,15.08Z"/><path class="cls-1" d="m327.22,33.59c-.41-.4-2.27-.85-3.33-.85-5.94,0-10.74,4.81-10.74,11.06,0,5.93,4.8,10.73,10.74,10.73,5.44,0,9.93-4.04,10.64-9.28l13.35-.18c-.66,12.68-11.15,22.76-23.99,22.76s-24.02-10.75-24.02-24.02,10.75-24.02,24.02-24.02c9.26,0,17.3,5.25,21.32,12.93l-21.53,17.24-6.26-7.75,9.8-8.61Z"/><path class="cls-1" d="m347.68,54.79v12.17s19.47.06,23.78,0c5.32-.09,11.05-5.37,11.05-13.88,0-3.82-.72-6.93-5.52-9.78-4.67-2.76-9.28-5.8-12.52-8.06-3.12-2.17-3.02-2.99.63-2.89,4.4.12,14.02,0,14.02,0v-11.55h-19.33c-4.25,0-12.1,2.75-12.1,10.19,0,4.25.85,6.58,2.75,8.5,1.91,1.91,15.05,9.41,16.99,10.83,2.34,1.7,2.34,4.46-1.27,4.46h-18.47Z"/><path class="cls-1" d="m148.48,14.42c3.98,0,7.21-3.23,7.21-7.21s-3.23-7.21-7.21-7.21-7.21,3.22-7.21,7.21,3.23,7.21,7.21,7.21Z"/><path class="cls-1" d="m157.65,43.1c0-13.26,10.76-24.02,24.03-24.02s24.02,10.76,24.02,24.02-10.76,24.04-24.02,24.04-24.03-10.76-24.03-24.04Zm24.03,10.76c5.93,0,10.73-4.83,10.73-10.76s-4.81-10.73-10.73-10.73-10.75,4.8-10.75,10.73,4.81,10.76,10.75,10.76Z"/><path class="cls-1" d="m64.73,47.71c0,4.05,2.02,6.55,5.3,6.55s5.3-2.51,5.3-6.55v-26.78h14.83v26.78c0,12.14-7.04,21.19-20.13,21.19s-20.13-9.04-20.13-21.19v-26.78h14.84v26.78Z"/><path class="cls-1" d="m272.36,47.71c0,4.05,2.02,6.55,5.3,6.55s5.3-2.51,5.3-6.55v-26.78h14.84v26.78c0,12.14-7.04,21.19-20.13,21.19s-20.13-9.04-20.13-21.19v-26.78h14.84v26.78Z"/><path class="cls-1" d="m407.43,66.92v-12.3c-7.16.34-10-1.08-10.29-5.61l.14-16.55h10.08v-11.69h-10.11l-.04-14.1h-13.09v40.96c-.37,14.22,6.42,19.28,23.32,19.28Z"/><path class="cls-1" d="m412.88,60.66c0-3.45,2.81-6.26,6.29-6.26s6.26,2.81,6.26,6.26-2.79,6.29-6.26,6.29-6.29-2.81-6.29-6.29Zm11.79,0c0-3.04-2.47-5.5-5.5-5.5s-5.52,2.46-5.52,5.5,2.47,5.53,5.52,5.53,5.5-2.47,5.5-5.53Zm-2.38,3.52h-1.02l-2-3.24h-1.57v3.24h-.86v-7.03h3.05c.59,0,1.18.04,1.7.36.53.29.8.91.8,1.52,0,1.37-.98,1.87-2.22,1.92l2.12,3.24Zm-3.29-3.92c.99,0,2.52.17,2.52-1.26,0-1.08-.96-1.21-1.83-1.21h-1.99v2.47h1.31Z"/></g></svg>